<?xml version="1.0" encoding="UTF-8" standalone="no"?><svg xmlns="http://www.w3.org/2000/svg" xmlns:xlink="http://www.w3.org/1999/xlink" contentScriptType="application/ecmascript" contentStyleType="text/css" height="523px" preserveAspectRatio="none" style="width:569px;height:523px;" version="1.1" viewBox="0 0 569 523" width="569px" zoomAndPan="magnify"><defs><filter height="300%" id="f1m0iwpaf80ulz" width="300%" x="-1" y="-1"><feGaussianBlur result="blurOut" stdDeviation="2.0"/><feColorMatrix in="blurOut" result="blurOut2" type="matrix" values="0 0 0 0 0 0 0 0 0 0 0 0 0 0 0 0 0 0 .4 0"/><feOffset dx="4.0" dy="4.0" in="blurOut2" result="blurOut3"/><feBlend in="SourceGraphic" in2="blurOut3" mode="normal"/></filter></defs><g><!--MD5=[b225eedcfb2337a4b9b2667e21197ea8]
cluster Cloud Provider--><path d="M441.8776,33.2647 C445.0604,27.2626 450.9477,26.4092 454.489,32.9028 C458.6185,25.951 463.6112,26.4755 467.4953,33.1374 C469.76,26.2303 475.6237,26.5884 479.507,31.4911 C483.3953,25.2856 487.6255,25.2966 492.5128,30.3357 C497.1439,23.8902 503.4179,25.8163 506.0515,32.4098 C510.2435,26.6269 514.4913,26.1124 518.4664,32.6287 C521.2903,26.9569 527.3922,26.972 530.9335,31.7749 C534.7429,26.0487 541.5845,25.3992 544.9539,32.2649 C552.6001,35.2404 554.1122,41.2475 547.3059,46.5951 C553.2719,49.637 554.645,53.1287 549.5596,58.2987 C555.8014,61.3155 556.3281,66.9024 550.349,70.6973 C557.0379,76.0552 555.9004,80.6798 548.9877,84.717 C555.3748,89.4184 553.4061,95.0661 547.3103,98.2163 C552.4924,102.6575 552.3117,108.404 544.9954,110.4875 C540.8939,117.0483 536.2283,116.4342 531.8823,110.7492 C528.3953,118.3962 523.0649,119.8396 517.505,112.7749 C514.0246,119.047 509.8974,120.7567 504.6956,114.5407 C501.4379,119.836 496.4531,119.886 492.9656,114.8003 C488.3678,121.2905 482.9413,121.7282 478.8227,114.3129 C473.5103,120.1616 469.7912,118.2599 466.6348,112.1209 C463.3454,117.3335 457.7066,118.5752 454.1269,112.441 C448.9205,118.8182 445.0607,116.5834 441.279,110.9207 C434.2549,108.5628 432.1826,103.1596 438.1859,97.7438 C430.5739,96.1392 429.5399,90.3249 435.0353,85.3802 C427.2513,82.5878 427.2642,77.3635 432.5748,72.1381 C428.1818,66.4912 428.2549,61.9385 435.4325,58.764 C430.4998,53.1008 432.2134,48.6541 438.9287,46.2434 C433.0563,41.411 434.5174,35.0906 441.8776,33.2647 " fill="#FFFFFF" style="stroke: #000000; stroke-width: 1.5;"/><text fill="#000000" font-family="sans-serif" font-size="14" font-weight="bold" lengthAdjust="spacingAndGlyphs" textLength="103" x="440" y="51.9659">Cloud Provider</text><!--MD5=[a8e31809c94bd3920922c17a126bb0b3]
cluster MySql--><path d="M247,226 C247,216 336,216 336,216 C336,216 425,216 425,226 L425,501 C425,511 336,511 336,511 C336,511 247,511 247,501 L247,226 " fill="#FFFFFF" filter="url(#f1m0iwpaf80ulz)" style="stroke: #000000; stroke-width: 1.5;"/><path d="M247,226 C247,236 336,236 336,236 C336,236 425,236 425,226 " fill="none" style="stroke: #000000; stroke-width: 1.5;"/><text fill="#000000" font-family="sans-serif" font-size="14" font-weight="bold" lengthAdjust="spacingAndGlyphs" textLength="42" x="315" y="252.9659">MySql</text><!--MD5=[57a7dd60b0970f41fd8892a58576fbc8]
cluster This is my folder--><polygon fill="#FFFFFF" filter="url(#f1m0iwpaf80ulz)" points="271,277,391,277,398,302.0679,401,302.0679,401,370,271,370,271,277" style="stroke: #000000; stroke-width: 1.5;"/><line style="stroke: #000000; stroke-width: 1.5;" x1="271" x2="398" y1="302.0679" y2="302.0679"/><text fill="#000000" font-family="sans-serif" font-size="14" font-weight="bold" lengthAdjust="spacingAndGlyphs" textLength="114" x="275" y="293.9659">This is my folder</text><!--MD5=[b098bf3b49ab5940c6091a421f0675e2]
cluster Foo--><rect fill="#FFFFFF" filter="url(#f1m0iwpaf80ulz)" height="93" style="stroke: #000000; stroke-width: 1.5;" width="106" x="283" y="394"/><path d="M319,395 L319,406.0679 L309,416.0679 L283,416.0679 " fill="none" style="stroke: #000000; stroke-width: 1.5;"/><text fill="#000000" font-family="sans-serif" font-size="14" font-weight="bold" lengthAdjust="spacingAndGlyphs" textLength="26" x="286" y="409.9659">Foo</text><!--MD5=[262aabfe314dcb38308ea550cce12173]
cluster Some Group--><polygon fill="#FFFFFF" filter="url(#f1m0iwpaf80ulz)" points="22,24,114,24,121,49.0679,239,49.0679,239,117,22,117,22,24" style="stroke: #000000; stroke-width: 1.5;"/><line style="stroke: #000000; stroke-width: 1.5;" x1="22" x2="121" y1="49.0679" y2="49.0679"/><text fill="#000000" font-family="sans-serif" font-size="14" font-weight="bold" lengthAdjust="spacingAndGlyphs" textLength="86" x="26" y="40.9659">Some Group</text><!--MD5=[77a0c14de6685fa065b9b4e019b7f347]
entity Instance--><rect fill="#FEFECE" filter="url(#f1m0iwpaf80ulz)" height="39.0679" style="stroke: #A80036; stroke-width: 1.5;" width="78" x="449" y="62"/><rect fill="#FEFECE" height="5" style="stroke: #A80036; stroke-width: 1.5;" width="10" x="444" y="67"/><rect fill="#FEFECE" height="5" style="stroke: #A80036; stroke-width: 1.5;" width="10" x="444" y="91.0679"/><text fill="#000000" font-family="sans-serif" font-size="14" lengthAdjust="spacingAndGlyphs" textLength="58" x="459" y="86.9659">Instance</text><!--MD5=[3e0e08c92570480402984701ab5a6d2d]
entity Folder 3--><rect fill="#FEFECE" filter="url(#f1m0iwpaf80ulz)" height="39.0679" style="stroke: #A80036; stroke-width: 1.5;" width="74" x="299" y="315"/><rect fill="#FEFECE" height="5" style="stroke: #A80036; stroke-width: 1.5;" width="10" x="294" y="320"/><rect fill="#FEFECE" height="5" style="stroke: #A80036; stroke-width: 1.5;" width="10" x="294" y="344.0679"/><text fill="#000000" font-family="sans-serif" font-size="14" lengthAdjust="spacingAndGlyphs" textLength="54" x="309" y="339.9659">Folder 3</text><!--MD5=[63877ed85df621d134a6c80fb52dad56]
entity Frame 4--><rect fill="#FEFECE" filter="url(#f1m0iwpaf80ulz)" height="39.0679" style="stroke: #A80036; stroke-width: 1.5;" width="74" x="299" y="432"/><rect fill="#FEFECE" height="5" style="stroke: #A80036; stroke-width: 1.5;" width="10" x="294" y="437"/><rect fill="#FEFECE" height="5" style="stroke: #A80036; stroke-width: 1.5;" width="10" x="294" y="461.0679"/><text fill="#000000" font-family="sans-serif" font-size="14" lengthAdjust="spacingAndGlyphs" textLength="54" x="309" y="456.9659">Frame 4</text><!--MD5=[96f7e1299d4a43069e6ed32352fcac20]
entity HTTP--><ellipse cx="47" cy="81.5" fill="#FEFECE" filter="url(#f1m0iwpaf80ulz)" rx="8" ry="8" style="stroke: #A80036; stroke-width: 2.0;"/><text fill="#000000" font-family="sans-serif" font-size="14" lengthAdjust="spacingAndGlyphs" textLength="34" x="30" y="113.4659">HTTP</text><!--MD5=[cbd7cda55f2530e2efe43ec72c097853]
entity First Component--><rect fill="#FEFECE" filter="url(#f1m0iwpaf80ulz)" height="39.0679" style="stroke: #A80036; stroke-width: 1.5;" width="131" x="91.5" y="62"/><rect fill="#FEFECE" height="5" style="stroke: #A80036; stroke-width: 1.5;" width="10" x="86.5" y="67"/><rect fill="#FEFECE" height="5" style="stroke: #A80036; stroke-width: 1.5;" width="10" x="86.5" y="91.0679"/><text fill="#000000" font-family="sans-serif" font-size="14" lengthAdjust="spacingAndGlyphs" textLength="111" x="101.5" y="86.9659">First Component</text><!--MD5=[b9d11f23832c1491231c5b33e55ab8c6]
entity Another Component--><rect fill="#FEFECE" filter="url(#f1m0iwpaf80ulz)" height="39.0679" style="stroke: #A80036; stroke-width: 1.5;" width="156" x="258" y="62"/><rect fill="#FEFECE" height="5" style="stroke: #A80036; stroke-width: 1.5;" width="10" x="253" y="67"/><rect fill="#FEFECE" height="5" style="stroke: #A80036; stroke-width: 1.5;" width="10" x="253" y="91.0679"/><text fill="#000000" font-family="sans-serif" font-size="14" lengthAdjust="spacingAndGlyphs" textLength="136" x="268" y="86.9659">Another Component</text><!--MD5=[243c1e580c31013c48b02624e18b25a7]
entity Example 1--><rect fill="#FEFECE" filter="url(#f1m0iwpaf80ulz)" height="39.0679" style="stroke: #A80036; stroke-width: 1.5;" width="89" x="291.5" y="161"/><rect fill="#FEFECE" height="5" style="stroke: #A80036; stroke-width: 1.5;" width="10" x="286.5" y="166"/><rect fill="#FEFECE" height="5" style="stroke: #A80036; stroke-width: 1.5;" width="10" x="286.5" y="190.0679"/><text fill="#000000" font-family="sans-serif" font-size="14" lengthAdjust="spacingAndGlyphs" textLength="69" x="301.5" y="185.9659">Example 1</text><!--MD5=[efc1ffe8b578a0fb156c7bce303319bb]
link Another Component to Example 1--><path d="M336,101.2 C336,116.77 336,139.02 336,155.83 " fill="none" id="Another Component-&gt;Example 1" style="stroke: #A80036; stroke-width: 1.0;"/><polygon fill="#A80036" points="336,160.85,340,151.85,336,155.85,332,151.85,336,160.85" style="stroke: #A80036; stroke-width: 1.0;"/><!--MD5=[7ec8393a78a133520e8846dd05a7857a]
link Example 1 to Folder 3--><path d="M336,200.14 C336,227.72 336,279.38 336,309.68 " fill="none" id="Example 1-&gt;Folder 3" style="stroke: #A80036; stroke-width: 1.0;"/><polygon fill="#A80036" points="336,314.71,340,305.71,336,309.71,332,305.71,336,314.71" style="stroke: #A80036; stroke-width: 1.0;"/><!--MD5=[b96c7096199393c1414a8b4e9ed2c30f]
link Folder 3 to Frame 4--><path d="M336,354.23 C336,373.95 336,405.04 336,426.53 " fill="none" id="Folder 3-&gt;Frame 4" style="stroke: #A80036; stroke-width: 1.0;"/><polygon fill="#A80036" points="336,431.78,340,422.78,336,426.78,332,422.78,336,431.78" style="stroke: #A80036; stroke-width: 1.0;"/><!--MD5=[46d996859f59e5baf77956ce93023cee]
link HTTP to First Component--><path d="M56.02,81.5 C67.73,81.5 79.43,81.5 91.13,81.5 " fill="none" id="HTTP-First Component" style="stroke: #A80036; stroke-width: 1.0;"/><!--MD5=[df40cd305ce2a0dd9c28443df44639fc]
@startuml

cloud "Cloud Provider" {
  [Instance]
}


database "MySql" {
  folder "This is my folder" {
    [Folder 3]
  }
  frame "Foo" {
    [Frame 4]
  }
}


[Another Component] - -> [Example 1]
[Example 1] - -> [Folder 3]
[Folder 3] - -> [Frame 4]
package "Some Group" {
  HTTP - [First Component]
  [Another Component]
}
@enduml

PlantUML version 1.2020.06(Sun Apr 05 19:38:32 ICT 2020)
(APACHE source distribution)
Java Runtime: OpenJDK Runtime Environment
JVM: OpenJDK 64-Bit Server VM
Java Version: 11.0.7+10-post-Ubuntu-3ubuntu1
Operating System: Linux
Default Encoding: UTF-8
Language: en
Country: US
--></g></svg>